{"title":"Home of the Brave 2006 DVDrip Englisch Klam","uid":7254780,"size":1916179419,"categoryP":"video","categoryS":"movies","magnet":"?xt=urn:btih:f3534630aaa05bfc333200505bb1fb8c5f5c61ee&amp;dn=Home+of+the+Brave+2006+DVDrip+Englisch+Klam&amp;tr=udp%3A%2F%2Ftracker.openbittorrent.com%3A80&amp;tr=udp%3A%2F%2Fopen.demonii.com%3A1337&amp;tr=udp%3A%2F%2Ftracker.coppersurfer.tk%3A6969&amp;tr=udp%3A%2F%2Fexodus.desync.com%3A6969","seeders":0,"leechers":1,"uploader":"Klambake","files":-1,"time":1336554805,"description":"With: Samuel L. Jackson, Jessica Biel and Curtis '50 Cent' Jackson\n\nEen oorlogsdokter keert terug naar huis na enkele maanden aan het Iraakse front te hebben gezeten. Maar zijn familie, vrienden en vooral zijn vrouw, herkennen hem niet meer. Met hem keren veel soldaten terug van de strijd, ieder met zo zijn eigen problemen om weer terug te keren in de 'normale' maatschappij.\n\nThree soldiers struggle to readjust to life at home after returning home from a lengthy tour in Iraq.\n &lt;a href=&quot;\nhttp://www.imdb.com/title/tt0763840&quot; rel=&quot;nofollow&quot; target=&quot;_NEW&quot;&gt;\nhttp://www.imdb.com/title/tt0763840&lt;/a&gt;\t\n\n------------------------ Dutch Friends ------------------------\n---------------------------------------------------------------\n- Bezoek ook eens mijn vrienden op: &lt;a href=&quot; http://www.Film-Test.nl&quot; rel=&quot;nofollow&quot; target=&quot;_NEW&quot;&gt; http://www.Film-Test.nl&lt;/a&gt; --\n----- voor mijn Nederlandse Sync. ondertitels ---- en meer ----\n------- http://www.Film-Test.nl ---- voor Films en meer -------\n---------------------------------------------------------------\n\nGeneral:\n\nComplete name                    : Home of the BraveHome of the Brave.avi\nFormat                           : AVI\nFormat/Info                      : Audio Video Interleave\nFile size                        : 1.78 GiB\nDuration                         : 1h 42mn\nOverall bit rate                 : 2 501 Kbps\n\nVideo:\n\nFormat                           : MPEG-4 Visual\nFormat profile                   : Simple@L3\nFormat settings, BVOP            : No\nFormat settings, QPel            : No\nFormat settings, GMC             : No warppoints\nFormat settings, Matrix          : Default (H.263)\nCodec ID                         : XVID\nCodec ID/Hint                    : XviD\nDuration                         : 1h 42mn\nBit rate                         : 2 042 Kbps\nWidth                            : 720 pixels\nHeight                           : 304 pixels\nDisplay aspect ratio             : 2.35:1\nFrame rate                       : 25.000 fps\nColor space                      : YUV\nChroma subsampling               : 4:2:0\nBit depth                        : 8 bits\nScan type                        : Progressive\nCompression mode                 : Lossy\nBits/(Pixel*Frame)               : 0.373\nStream size                      : 1.46 GiB (82%)\nWriting library                  : XviD 1.1.2 (UTC 2006-11-01)\n\nAudio:\n\nFormat                           : AC-3\nFormat/Info                      : Audio Coding 3\nMode extension                   : CM (complete main)\nCodec ID                         : 2000\nDuration                         : 1h 42mn\nBit rate mode                    : Constant\nBit rate                         : 448 Kbps\nChannel(s)                       : 6 channels\nChannel positions                : Front: L C R, Side: L R, LFE\nSampling rate                    : 48.0 KHz\nBit depth                        : 16 bits\nCompression mode                 : Lossy\nStream size                      : 327 MiB (18%)\nAlignment                        : Aligned on interleaves\nInterleave, duration             : 32 ms (0.80 video frame)\n\n","torrent":{"xt":"urn:btih:f3534630aaa05bfc333200505bb1fb8c5f5c61ee","amp;dn":"Home+of+the+Brave+2006+DVDrip+Englisch+Klam","amp;tr":["udp%3A%2F%2Ftracker.openbittorrent.com%3A80","udp%3A%2F%2Fopen.demonii.com%3A1337","udp%3A%2F%2Ftracker.coppersurfer.tk%3A6969","udp%3A%2F%2Fexodus.desync.com%3A6969"],"infoHash":"f3534630aaa05bfc333200505bb1fb8c5f5c61ee","infoHashBuffer":{"type":"Buffer","data":[243,83,70,48,170,160,91,252,51,50,0,80,91,177,251,140,95,92,97,238]},"announce":[],"urlList":[]}}